<?xml version="1.0" standalone="no"?>
<!DOCTYPE svg PUBLIC "-//W3C//DTD SVG 20010904//EN"
 "http://www.w3.org/TR/2001/REC-SVG-20010904/DTD/svg10.dtd">
<svg version="1.0" xmlns="http://www.w3.org/2000/svg"
 width="288.000000pt" height="288.000000pt" viewBox="0 0 288.000000 288.000000"
 preserveAspectRatio="xMidYMid meet">

<g transform="translate(0.000000,288.000000) scale(0.100000,-0.100000)"
fill="#000000" stroke="none">
<path d="M488 2007 c-17 -13 -318 -534 -318 -549 0 -9 25 -53 175 -313 28 -49
72 -125 96 -167 l44 -78 322 0 322 0 35 59 c20 32 36 64 36 70 0 22 -16 10
-35 -26 -11 -20 -28 -47 -38 -60 l-18 -23 -303 0 -303 0 -103 177 c-57 98
-125 214 -152 259 -26 45 -48 89 -48 98 0 15 55 115 254 463 l41 73 315 -3
315 -2 28 -52 c16 -29 35 -53 43 -53 10 0 5 15 -18 53 -58 96 -22 88 -369 87
-222 -1 -311 -4 -321 -13z"/>
<path d="M1200 1630 c0 -25 4 -30 25 -30 l25 0 2 -177 3 -178 25 0 25 0 3 140
3 140 72 -140 c64 -124 75 -140 100 -143 l27 -3 0 210 0 211 -25 0 -25 0 0
-133 c0 -74 -3 -136 -6 -140 -3 -3 -38 57 -78 134 l-71 139 -52 0 c-52 0 -53
0 -53 -30z"/>
<path d="M2138 1583 c-3 -44 -5 -48 -30 -51 -22 -3 -28 -9 -28 -28 0 -20 5
-24 30 -24 l30 0 0 -80 c0 -118 17 -144 100 -153 20 -2 25 2 25 22 0 18 -6 25
-25 28 -39 5 -50 30 -50 110 l0 73 30 0 c25 0 30 4 30 24 0 19 -6 25 -27 28
-26 3 -28 7 -31 51 -3 42 -6 47 -27 47 -21 0 -24 -5 -27 -47z"/>
<path d="M1664 1529 c-45 -13 -66 -51 -71 -128 -7 -115 34 -159 150 -160 43
-1 47 1 47 23 0 21 -5 24 -56 29 -61 6 -84 20 -84 48 0 17 8 19 80 19 l80 0 0
46 c0 68 -24 111 -69 124 -41 11 -36 11 -77 -1z m84 -67 c6 -9 12 -24 12 -34
0 -15 -9 -18 -55 -18 -48 0 -55 2 -55 20 0 11 9 29 21 41 22 22 55 19 77 -9z"/>
<path d="M1886 1458 l36 -73 -36 -63 c-20 -35 -36 -67 -36 -72 0 -4 11 -7 25
-7 20 0 31 10 52 48 14 27 29 49 32 49 3 0 18 -23 33 -50 22 -39 33 -50 53
-50 33 0 32 8 -10 77 -19 32 -35 64 -35 72 0 8 16 43 35 78 l36 63 -30 0 c-27
0 -34 -7 -57 -52 l-27 -53 -25 53 c-22 44 -30 52 -54 52 l-28 0 36 -72z"/>
</g>
</svg>
